<svg  xmlns="http://www.w3.org/2000/svg" width="30px" height="30px" viewBox="0 0 1024 1024" data-aut-id="icon" fill="currentColor" class="" fill-rule="evenodd"><path class="rui-vUQO_" d="M777.049 133.012l69.146 7.353 48.548 49.856 5.553 69.297-95.903 93.421-60.089-6.386-24.218 23.781c19.044 29.22 29.447 63.633 29.447 98.728 0 84.059-57.645 154.894-135.469 175.074 2.028 12.791 3.050 25.676 3.050 38.544 0 138.711-112.843 251.535-251.535 251.535-187.504 0-327.75-206.226-205.791-403.793 74.207-77.997 153.737-106.060 231.734-97.893 16.941-82.279 89.952-144.318 177.158-144.318 24.407 0 48.093 4.794 70.397 14.231v0l4.301 2.141 22.285 12.98 21.602-21.223-0.568-0.587-5.553-69.335 95.903-93.402zM568.679 364.005c-57.948 0-105.057 47.128-105.057 105.057 0 1.346 0.114 2.69 0.208 4.017v0l3.393 56.469-51.808-15.291c-16.373-4.831-33.124-7.297-49.837-7.297-138.008 0-239.388 159.952-128.478 304.214 144.261 110.91 304.214 9.551 304.214-128.497 0-19.517-3.412-39.093-10.119-58.213v0l-18.324-52.206 57.626 1.914c56.109-0.057 103.237-47.185 103.237-105.113 0-15.386-3.544-30.034-9.779-43.603v0l-115.498 113.451-44.171-6.783-8.944-47.298 114.246-112.2-2.103-1.233c-12.317-4.907-25.354-7.391-38.809-7.391zM367.141 573.986c54.271 0 98.271 44 98.271 98.271s-44 98.252-98.271 98.252c-54.271 0-98.271-43.981-98.271-98.252s44-98.271 98.271-98.271zM804.43 212.125l-44.892 43.754 0.53 6.556 10.384 10.668 6.556 0.7 44.892-43.735-0.53-6.537-10.403-10.687-6.537-0.719z"></path></svg>