<svg xmlns="http://www.w3.org/2000/svg" width="30px" height="30px" viewBox="0 0 1024 1024" data-aut-id="icon" fill="currentColor" class="" fill-rule="evenodd"><path class="rui-vUQO_" d="M692.542 407.546v-157.118h-250.722l-118.86 114.511 28.55 42.607h341.031zM854.755 37.877l75.989 76.034v796.134l-76.034 76.077h-498.104l-23.324-28.771c14.495-27.452 22.183-58.507 22.183-89.737 0-105.946-86.18-192.127-192.082-192.127-12.869 0-25.477 1.317-37.776 3.822l-73.353 0.307v-391.104l229.725-250.634h572.776zM824.359 111.23h-510.096l-188.7 205.743v288.146c12.432-1.756 25.037-2.987 37.776-2.987 146.402 0 265.437 119.081 265.437 265.437 0 15.153-1.756 30.22-4.349 45.155h399.89l33.12-33.075v-735.386l-33.12-33.075zM765.938 578.413v64.393h-138.714v-64.393h138.671zM729.262 177.073l36.678 36.678v230.473l-36.678 36.678h-397.297l-30.484-16.251-56.574-84.335 5.007-46.868 151.671-146.093 25.477-10.279h302.158z"></path></svg>