<svg  xmlns="http://www.w3.org/2000/svg" width="30px" height="30px" viewBox="0 0 1024 1024" data-aut-id="icon" fill="currentColor" class="" fill-rule="evenodd"><path class="rui-vUQO_" d="M708.012 340.654v471.101h-391.011v-471.101h-116.125l48.317-144.445 32.889-26.596h106.075c17.154 51.007 65.474 87.906 122.014 87.906s104.908-36.899 122.062-87.906h101.002l28.423 17.258 56.135 153.784h-109.781zM827.639 132.662l-71.867-43.647h-197.179l-0.252 40.097c-0.204 26.393-21.824 47.809-48.165 47.809-26.393 0-47.964-21.468-48.116-47.861l-0.304-39.993h-208.092l-73.39 59.282-91.204 272.855h147.339v471.101h552.103v-471.101h144.397l-105.212-288.538z"></path></svg>