<svg xmlns="http://www.w3.org/2000/svg" width="30px" height="30px" viewBox="0 0 1024 1024" data-aut-id="icon" fill="currentColor" class="" fill-rule="evenodd"><path class="rui-vUQO_" d="M268.748 91.803l-70.244 96.818v124.45l-24.559-0.152-82.195 104.783v430.333h152.539v75.637h91.975v-75.637h333.816v75.637h91.975v-75.637h170.135v-436.888l-82.295-97.219h-4.335v-117.692l-78.665-104.431h-498.206zM429.605 396.172l-79.319-82.195-59.755-0.353v-95.152l25.112-34.692h405.422l32.524 43.213v86.934h-87.64l-65.504 77.403v75.284h-170.792v-70.444zM183.829 449.472l34.743-44.274 92.48 0.505 26.626 27.632v125.207h354.845v-133.528l16.137-19.111h98.633l32.977 38.93v311.176h-656.49v-306.588z"></path></svg>