<svg xmlns="http://www.w3.org/2000/svg" width="30px" height="30px" viewBox="0 0 1024 1024" fill="currentColor" data-aut-id="icon" class="" fill-rule="evenodd"><path class="rui-vUQO_" d="M341.665 89.769l-82.848 72.739v66.327h-70.534l-98.517 98.906v468.388l95.92 104.215h649.246l99.298-102.676v-478.475l-107.179-90.359h-58.539v-2.275h-3.907v-65.087l-85.419-71.703h-337.522zM350.693 204.115l25.616-22.448h269.404l26.995 22.677v24.491h-322.015v-24.72zM181.668 365.697l44.756-44.963h567.065l48.844 41.17v79.17h-660.665v-75.381zM696.787 595.514v-62.538h145.545v227.542l-46.362 47.901h-569.959l-44.341-48.156v-227.29h127.763v62.538l31.132 17.116 31.132-17.116v-62.538h262.832v62.538l31.132 17.116 31.132-17.116z"></path></svg>