<svg xmlns="http://www.w3.org/2000/svg" width="30px" height="30px" viewBox="0 0 1024 1024" data-aut-id="icon" fill = "currentColor" class="" fill-rule="evenodd"><path class="rui-vUQO_" d="M744.747 124.16l38.4 33.28 36.949 258.731 107.221 107.179 11.349 27.435v193.963l-38.827 38.784h-38.741v116.352h-77.568v-116.352h-543.061v116.352h-77.568v-116.352h-38.741l-38.827-38.827v-193.877l11.349-27.435 107.264-107.221 36.949-258.731 38.4-33.28h465.493zM768.555 474.325h-513.109l-92.544 92.501v139.093h698.197v-139.093l-92.544-92.501zM298.667 550.784c32.128 0 58.197 26.027 58.197 58.197 0 32.128-26.027 58.155-58.197 58.155-32.128 0-58.197-26.027-58.197-58.155s26.027-58.197 58.197-58.197zM725.333 550.784c32.128 0 58.197 26.027 58.197 58.197 0 32.128-26.027 58.155-58.197 58.155-32.128 0-58.197-26.027-58.197-58.155s26.027-58.197 58.197-58.197zM711.083 201.685h-398.165l-27.904 195.115h453.888l-27.861-195.072z"></path></svg>