<?xml version="1.0" encoding="utf-8"?>
<!-- Generator: Adobe Illustrator 19.0.0, SVG Export Plug-In . SVG Version: 6.00 Build 0)  -->
<svg version="1.1" id="layer" xmlns="http://www.w3.org/2000/svg" xmlns:xlink="http://www.w3.org/1999/xlink" x="0px" y="0px"
	 viewBox="-153 -46 652 652" fill="rgb(0, 47, 52)" style="enable-background:new -153 -46 652 652;" xml:space="preserve">
<path d="M273,107.6v342.9h-85.7V107.6H273z M15.9,136.1c78.9,0,142.9,64,142.9,142.9s-64,142.9-142.9,142.9S-127,357.9-127,279
	S-63,136.1,15.9,136.1z M362.2,193.3l25.1,25.1l25.1-25.1H473v60.6L447.9,279l25.1,25.1v60.6h-60.6l-25.1-25.1l-25.1,25.1h-60.6
	v-60.6l25.1-25.1l-25.1-25.1v-60.6H362.2z M15.9,221.9c-31.5,0-57.1,25.6-57.1,57.1s25.6,57.1,57.1,57.1S73,310.5,73,279
	S47.4,221.9,15.9,221.9z"/>
</svg>
