<svg xmlns="http://www.w3.org/2000/svg" width="30px" height="30px" viewBox="0 0 1024 1024" data-aut-id="icon" fill="currentColor" class="" fill-rule="evenodd"><path class="rui-vUQO_" d="M356.848 85.333l271.515 179.315v174.318h248.824l61.479 60.925v377.85l-61.479 60.925h-730.376l-61.479-60.925v-613.093l271.515-179.315zM356.848 177.586l-193.939 128.192v540.060l16.097 15.952h100.267v-192.192h155.152v192.192h116.364v-556.012l-193.939-128.192zM844.994 515.844h-216.63v345.946h216.63l16.097-15.952v-314.042l-16.097-15.952zM783.316 640v85.333h-85.333v-85.333h85.333zM352 432c29.455 0 53.333 23.878 53.333 53.333s-23.878 53.333-53.333 53.333c-29.455 0-53.333-23.878-53.333-53.333s23.878-53.333 53.333-53.333z"></path></svg>