<svg xmlns="http://www.w3.org/2000/svg" width="30px" height="30px" viewBox="0 0 1024 1024" data-aut-id="icon" class="" fill="currentColor" fill-rule="evenodd"><path class="rui-vUQO_" d="M845.419 795.973l-18.078 18.059h-643.422l-18.078-18.059v-37.922l18.078-18.059h643.422l18.078 18.059v37.922zM198.941 562.396l43.308-63.059v-153.289c0-46.52 37.845-84.365 84.365-84.365h356.844c46.52 0 84.365 37.845 84.365 84.365v155.441l46.249 54.576v15.597h-615.134v-9.269zM859.19 663.070h-320.595v-14.48h352.403v-120.712l-46.249-54.576v-127.248c0-88.94-72.347-161.287-161.287-161.287h-144.863v-18.924h71.095v-76.922h-216.422v76.922h68.404v18.924h-135.058c-88.94 0-161.287 72.347-161.287 161.287v129.404l-43.308 63.040v110.096h339.653v14.48h-309.596l-63.155 63.136v101.616l63.155 63.136h707.114l63.155-63.136v-101.616l-63.155-63.136z"></path></svg>